HIERARCHY
ROOT base
{
	OFFSET 0.0 0.0 0.0
	CHANNELS 6 Xposition Yposition Zposition Zrotation Yrotation Xrotation
	JOINT root
	{
		OFFSET 0 0 0
		CHANNELS 6 Xposition Yposition Zposition Zrotation Yrotation Xrotation
		JOINT chest
		{
			OFFSET 0 4.72302 0
			CHANNELS 3 Zrotation Yrotation Xrotation
			JOINT neck
			{
				OFFSET 0 4.47788 0
				CHANNELS 3 Zrotation Yrotation Xrotation
				End Site
				{
					OFFSET 0.0 0.0 0.0
				}
			}
			JOINT right_shoulder
			{
				OFFSET -0.481 4.87 3.6622
				CHANNELS 3 Zrotation Yrotation Xrotation
				JOINT right_elbow
				{
					OFFSET 0 -5.49576 0
					CHANNELS 3 Zrotation Yrotation Xrotation
					JOINT right_wrist
					{
						OFFSET 0 -5.17894 0
						CHANNELS 3 Zrotation Yrotation Xrotation
						End Site
						{
							OFFSET 0.0 0.0 0.0
						}
					}
				}
			}
			JOINT left_shoulder
			{
				OFFSET -0.481 4.87 -3.6622
				CHANNELS 3 Zrotation Yrotation Xrotation
				JOINT left_elbow
				{
					OFFSET 0 -5.49576 0
					CHANNELS 3 Zrotation Yrotation Xrotation
					JOINT left_wrist
					{
						OFFSET 0 -5.17894 0
						CHANNELS 3 Zrotation Yrotation Xrotation
						End Site
						{
							OFFSET 0.0 0.0 0.0
						}
					}
				}
			}
		}
		JOINT right_hip
		{
			OFFSET 0 0 1.69774
			CHANNELS 3 Zrotation Yrotation Xrotation
			JOINT right_knee
			{
				OFFSET 0 -8.43092 0
				CHANNELS 3 Zrotation Yrotation Xrotation
				JOINT right_ankle
				{
					OFFSET 0 -8.1974 0
					CHANNELS 3 Zrotation Yrotation Xrotation
					End Site
					{
						OFFSET 0.0 0.0 0.0
					}
				}
			}
		}
		JOINT left_hip
		{
			OFFSET 0 0 -1.69774
			CHANNELS 3 Zrotation Yrotation Xrotation
			JOINT left_knee
			{
				OFFSET 0 -8.43092 0
				CHANNELS 3 Zrotation Yrotation Xrotation
				JOINT left_ankle
				{
					OFFSET 0 -8.1974 0
					CHANNELS 3 Zrotation Yrotation Xrotation
					End Site
					{
						OFFSET 0.0 0.0 0.0
					}
				}
			}
		}
	}
	JOINT red_arrow
	{
		OFFSET 0 0 0
		CHANNELS 3 Zrotation Yrotation Xrotation
		End Site
		{
			OFFSET 0.0 0.0 0.0
		}
	}
	JOINT blue_arrow
	{
		OFFSET 0 0 0
		CHANNELS 3 Zrotation Yrotation Xrotation
		End Site
		{
			OFFSET 0.0 0.0 0.0
		}
	}
}
MOTION
Frames: 10
Frame Time: 0.0333333333333333
286.591995882988 0 56.6080110013485 0 -25.247311969297 0 0 17.4690639615059 0 -8.30751421831398 1.63371258711119 -4.98302414267407 -12.6876489462956 -2.77208723473338 -3.0710133318857 -3.08439691889977 -1.0339341991822 -0.998614931006333 -4.65592263946945 12.6958973700557 -10.8272118394927 -7.05888214538471E-06 0 0 0 0 0 7.46262538526854 -15.3695572387685 10.1050463958625 15.1236848979982 0 0 0 0 0 6.24580772368166 -3.68305379194186 6.27521568051769 -1.19039429013209 0 0 3.15258268663784 -7.38637302994044 -1.46124393123719 26.0014035632884 2.39282736266194 7.10965403603773 -69.2993793567053 0 0 -31.5152817036798 -2.7729198483172 8.98128231320675 0 0 0 0 0 0
287.614782810211 0 56.9498469199985 0 -25.2013904626364 0 0 17.4007090687752 0 -7.3484746840327 0.865343445782072 -4.71548449671195 -10.577676956221 -2.13171156896031 -3.05648362374518 -0.896942565898191 -0.893066709269305 -0.720132598979576 -3.76029191088142 17.7206743240065 -14.097625870329 1.90923189307967 0 0 0 0 0 4.09867449138354 -8.22915699513851 7.85745113460064 8.60762978829268 0 0 0 0 0 1.45411368648343 -4.33696588848025 5.71116042570387 -0.926829563057462 0 0 6.52444470445594 -5.28131741015484 -0.684923092522217 33.4465565320917 2.94200150581821 9.71626910061246 -76.3470144291346 0 0 -19.3773170944194 -2.5828340626427 6.36708562182748 0 0 0 0 0 0
288.692374123633 0 57.2594284061342 0 -25.2484734599584 0 0 17.2929148077965 0 -5.57824012644563 -0.890341263690678 -4.02053087918547 -9.14195386710081 -1.68011624915036 -3.11389360115533 0.225047030201744 -0.736586067126164 -0.351688935112472 -3.19758926002725 22.5827697954996 -17.6340506457115 8.04784029052313 0 0 0 0 0 0.770885664226453 -1.11598798222023 7.4402154943213 1.76016482871314 0 0 0 0 0 -2.81843860979435 -6.24080369156101 4.20492774533744 -3.33437178085717 0 0 10.6936626131254 -1.27647412546783 0.823772621409827 37.6478451629042 3.26986663034594 11.7112896756212 -78.0398563243548 0 0 -8.31021855390795 -1.99118912487251 4.89332955842691 0 0 0 0 0 0
289.747517298162 0 57.5225847698748 0 -25.3661089535154 0 0 17.1774411797524 0 -4.13030386305985 -2.2292753698894 -3.28890692610835 -8.26649023516746 -1.8316722159553 -2.90248901221813 0.678374258012138 -0.0581519506849419 -0.247332904964612 -2.86091884126389 28.2277138311603 -22.2004141239065 16.229268835928 0 0 0 0 0 -2.92446775140327 4.38743759601688 7.38771216564213 -0.00014649724508663 0 0 0 0 0 -6.20716104988958 -8.04058524672274 2.16747362119251 -6.13222579910749 0 0 13.7176467987985 1.78771570235305 2.62950834361691 39.6733567375941 3.56421454323412 12.3271837856864 -73.3430221000821 0 0 0.0548221902399308 -1.2365726501628 4.48832844156868 0 0 0 0 0 0
290.738737127185 0 57.7668236762285 0 -25.4876505899696 0 0 17.0589825749397 0 -3.64190988431008 -2.30463258757686 -2.75728631655867 -7.63171782009654 -2.27735473730399 -2.76423079101993 0.502805501472508 0.777792189194096 -0.549466383641659 -2.52059043871214 32.7063245995235 -26.2631435433943 24.6546640545228 0 0 0 0 0 -6.10588997021804 8.87601676099511 7.28514116116784 -0.00146052385452799 0 0 0 0 0 -8.35150228532518 -9.23802915730619 0.408785724947691 -9.05656019319105 0 0 15.2923404038726 3.05574684083101 4.09247804182537 40.4587403638582 4.61258026469252 11.6489514251313 -63.1026082699412 0 0 4.79734972387424 -0.66698041792373 4.235991243026 0 0 0 0 0 0
291.635762931406 0 58.0240355100483 0 -25.528260444335 0 0 16.9095784068108 0 -4.48359274929908 -0.769226275332918 -2.83184620078628 -7.08144146086057 -2.52431084281967 -2.7471373377264 0.0857716580917113 1.31110251471988 -0.898054263861227 -2.36839504564995 35.7459351847091 -29.5045845179005 32.8481419073972 0 0 0 0 0 -8.0526198607991 13.4992183480528 8.13486228935047 -0.0194098268110693 0 0 0 0 0 -9.97053455763997 -11.334407550444 -0.135053307972892 -10.5769534722467 0 0 15.5342935586531 3.73346780588459 5.26115210271947 42.3016848016299 6.30124774045916 10.4681787353851 -51.7390108119267 0 0 8.49894585863197 -0.732722280395509 4.0473741285069 0 0 0 0 0 0
292.541927334666 0 58.2783839188516 0 -25.4831711430398 0 0 16.7538424372673 0 -5.97895800479981 0.852037168884225 -3.17876416819913 -6.68839804623142 -2.53221285892114 -2.87356456726878 -0.520675698876743 1.80605609175198 -1.54042053894656 -1.36103096169914 36.4594279584847 -30.3050406453242 38.3666717944844 0 0 0 0 0 -9.90957830521636 16.6352575111799 8.17135982497231 -5.13408902458584E-06 0 0 0 0 0 -11.64868522634 -11.8815575714091 -0.0645807538699749 -10.8115755928785 0 0 14.1433229583782 3.06430612611467 6.1122459291916 43.1377529907181 7.67938317999372 8.67459962046637 -39.7885805758977 0 0 10.1575533274122 -0.815904679459515 3.62372291924347 0 0 0 0 0 0
293.524170973897 0 58.5048532832414 0 -25.3963227104057 0 0 16.603239428997 0 -7.63465957153273 1.63550046832042 -3.54857126993169 -6.14990136431597 -2.37438792661951 -2.79454938352585 -1.71300935687656 2.1500924498015 -2.38224323104693 0.0410334669660254 35.0804652518715 -29.2858290627427 42.062876475161 0 0 0 0 0 -11.4916890825874 17.0380038223376 7.00333998579503 -1.30918307309426E-06 0 0 0 0 0 -12.3787116239026 -10.8688154699378 -0.362396950305023 -12.3360755231727 0 0 11.2664396785685 1.9410688253813 7.05815208345406 42.5166638227236 8.32508093457111 6.637917169217 -31.0325785882648 0 0 8.13204588902637 -0.43828393657085 2.78084135923588 0 0 0 0 0 0
294.570460519195 0 58.7115296214819 0 -25.2396865362515 0 0 16.4860006213188 0 -9.30810763951566 2.93696975149839 -3.75812336224364 -5.87024291822318 -2.77670799238124 -2.86824156092467 -3.0315513031785 2.0510946276726 -3.08468701301534 1.4020738211011 32.0957258064573 -27.3069834330581 44.3569047909365 0 0 0 0 0 -11.3409884713114 14.5263483505555 5.39931323185457 -0.000231912910714597 0 0 0 0 0 -11.6000983734661 -9.58139418179865 -0.997136393068324 -16.5466472360909 0 0 5.82117865367553 0.661451417517207 8.37214658154269 40.8455311716471 7.5116935659974 4.23300006806199 -26.9175108491899 0 0 -4.16608033132209 -1.45605683096332 3.44649055760202 0 0 0 0 0 0
295.587988620996 0 58.8794270336628 0 -24.9087769496751 0 0 16.7080505371094 0 -10.5474034710733 6.18188046021537 -3.33525322340195 -6.64999272620772 -3.72218342522305 -3.10927264131015 -5.30624230916504 1.76875900082144 -3.96426675232703 2.68775388101015 27.7906976764818 -24.2716639752889 44.0245751066804 0 0 0 0 0 -9.78461487116189 11.1625399279999 3.91151866950521 -4.70424315587326E-05 0 0 0 0 0 -8.11701648835304 -5.84441179667955 -1.50648368644148 -23.6384292362206 0 0 -11.7454754925145 -2.59867907079763 11.7865517401426 38.2812561285773 6.16829132626785 1.17274950867962 -27.189186746069 0 0 -0.373869803723829 -2.37087655065839 3.97345424126603 0 0 0 0 0 0
